<svg xmlns="http://www.w3.org/2000/svg" version="1.1" xmlns:xlink="http://www.w3.org/1999/xlink" xmlns:svgjs="http://svgjs.dev/svgjs" width="33.992" height="35.007"><svg xmlns="http://www.w3.org/2000/svg" width="33.992" height="35.007" viewBox="0 0 33.992 35.007">
  <g id="SvgjsG1007" data-name="Vector Smart Object" transform="translate(-439.918 -236.301)">
    <path id="SvgjsPath1006" data-name="패스 1" d="M467.71,237.291l1.584,3.31,3.544.531-2.564,2.577.605,3.639-3.169-1.718-3.171,1.718.606-3.639-2.564-2.577,3.544-.531Z" fill="none" stroke="#998675" stroke-linecap="round" stroke-linejoin="round" stroke-width="1.981"></path>
    <g id="SvgjsG1005" data-name="그룹 1">
      <path id="SvgjsPath1004" data-name="패스 2" d="M463.236,259.972c-9.448,0-13.088-5.821-13.088-13,0-2.888,1.946-6.217,3.55-8.375-6.658,1.847-12.541,8.578-12.541,15.78,0,6.882,5.855,15.694,15.8,15.694a15.76,15.76,0,0,0,15.717-14.091A13.087,13.087,0,0,1,463.236,259.972Z" fill="none" stroke="#998675" stroke-linecap="round" stroke-linejoin="round" stroke-width="2.476"></path>
    </g>
  </g>
</svg><style>@media (prefers-color-scheme: light) { :root { filter: none; } }
@media (prefers-color-scheme: dark) { :root { filter: none; } }
</style></svg>